# xmcd
#
# Track frame offsets:
#	150
#	17832
#	33605
#	48530
#	62702
#	76712
#	90310
#	107965
#	118935
#	134185
#	149152
#	165807
#
# Disc length: 2380 seconds
#
# Revision: 0
# Processed by: cddbd v1.4PL0 Copyright (c) Steve Scherf et al.
# Submitted via: EasyCDDAExtractor 4.6.0.1
#
DISCID=a8094a0c
DTITLE=Chitãozinho and Xororó - Amante
DYEAR=1984
DGENRE=Sertanejo
TTITLE0=Amor Proibido
TTITLE1=Minha Amiga
TTITLE2=Nossas Roupas
TTITLE3=Matriz ou Filial
TTITLE4=Choro Apaixonado
TTITLE5=A Carne é Fraca
TTITLE6=Amante
TTITLE7=Corpo Estranho
TTITLE8=Apenas um Pecado
TTITLE9=Noite de Revés
TTITLE10=Marcados
TTITLE11=Dizem que Sou Velho
EXTD=
EXTT0=
EXTT1=
EXTT2=
EXTT3=
EXTT4=
EXTT5=
EXTT6=
EXTT7=
EXTT8=
EXTT9=
EXTT10=
EXTT11=
PLAYORDER=
